<svg xmlns="http://www.w3.org/2000/svg" width="24" height="17" fill="none" viewBox="0 0 24 17">
  <g clip-path="url(#a)">
    <rect width="24" height="16" y=".5" fill="#FB923C" rx="3"/>
    <path fill="#fff" d="M4.965 12.5V3.968h2.784c.928 0 1.624.192 2.088.576.464.384.696.952.696 1.704 0 .384-.112.732-.336 1.044a2.149 2.149 0 0 1-.924.72 1.95 1.95 0 0 1 1.092.732c.264.36.396.792.396 1.296 0 .768-.248 1.372-.744 1.812-.496.432-1.196.648-2.1.648H4.965ZM6.08 8.504v3.072h1.86c.52 0 .932-.136 1.236-.408.304-.272.456-.644.456-1.116 0-1.032-.556-1.548-1.668-1.548H6.08Zm0-.9h1.704c.488 0 .88-.12 1.176-.36.296-.248.444-.584.444-1.008 0-.472-.136-.812-.408-1.02-.264-.216-.68-.324-1.248-.324H6.08v2.712ZM18.993 12.5h-1.128V8.552h-4.308V12.5h-1.116V3.968h1.116V7.64h4.308V3.968h1.128V12.5Z"/>
  </g>
  <defs>
    <clipPath id="a">
      <rect width="24" height="16" y=".5" fill="#fff" rx="3"/>
    </clipPath>
  </defs>
</svg>
