<svg xmlns="http://www.w3.org/2000/svg" width="80" height="80" fill="none" viewBox="0 0 80 80">
  <g opacity=".5">
    <path fill="#075985" d="M33.333 6.667a5.833 5.833 0 1 0 0 11.666h13.334a5.833 5.833 0 0 0 0-11.666H33.333Zm-20.456 47.35c-2.86-11.44-4.29-17.157-1.287-21.004 3.003-3.846 8.9-3.846 20.69-3.846h15.433c11.794 0 17.69 0 20.694 3.846 3 3.844 1.573 9.567-1.287 21.004-1.82 7.276-2.73 10.913-5.443 13.033-2.71 2.117-6.46 2.117-13.96 2.117H32.283c-7.5 0-11.253 0-13.966-2.117-2.71-2.12-3.62-5.757-5.44-13.033Z" opacity=".5"/>
    <path fill="#075985" d="M51.934 15.007a5.812 5.812 0 0 0 .006-5.004c2.277.017 4.053.12 5.64.74 1.894.741 3.541 2 4.754 3.634 1.223 1.646 1.8 3.756 2.586 6.66l.157.566 1.707 9.88c-1.36-.94-3.117-1.5-5.39-1.833l-1.204-6.957c-.947-3.466-1.29-4.556-1.87-5.336a5.833 5.833 0 0 0-2.56-1.957c-.733-.287-1.62-.37-3.826-.393ZM28.06 10a5.81 5.81 0 0 0 .007 5.007c-2.207.023-3.093.106-3.827.393a5.833 5.833 0 0 0-2.56 1.957c-.58.78-.923 1.87-1.866 5.333l-1.207 6.963c-2.27.334-4.027.89-5.39 1.827l1.707-9.873.156-.567c.79-2.907 1.367-5.02 2.587-6.667a10.834 10.834 0 0 1 4.753-3.63c1.587-.62 3.36-.726 5.64-.743Zm1.107 32.5a2.5 2.5 0 0 0-5 0v13.333a2.5 2.5 0 1 0 5 0V42.5ZM53.333 40a2.5 2.5 0 0 1 2.5 2.5v13.333a2.5 2.5 0 1 1-5 0V42.5a2.5 2.5 0 0 1 2.5-2.5ZM42.5 42.5a2.5 2.5 0 0 0-5 0v13.333a2.5 2.5 0 1 0 5 0V42.5Z"/>
  </g>
</svg>
