<svg xmlns="http://www.w3.org/2000/svg" width="24" height="24" fill="none" viewBox="0 0 24 24">
  <rect width="24" height="24" fill="#fff" rx="12"/>
  <path fill="url(#a)" fill-rule="evenodd" d="M18.793 8.126c.076.132.131.274.163.423.03.118.044.24.044.362v6.182a1.645 1.645 0 0 1-.258.87 1.65 1.65 0 0 1-.819.667 1.65 1.65 0 0 1-.301.09l-.12.017H5.498l-.12-.018a1.646 1.646 0 0 1-.302-.089 1.65 1.65 0 0 1-.87-.756 1.463 1.463 0 0 1-.163-.423A1.495 1.495 0 0 1 4 15.096V8.907a1.645 1.645 0 0 1 .258-.87c.19-.304.478-.539.819-.667.097-.04.198-.07.302-.09l.12-.017H17.5l.12.018c.104.02.205.05.302.089a1.65 1.65 0 0 1 .87.756Zm-1.383 7.36a.614.614 0 0 0 .048-.244V8.779a.6.6 0 0 0-.047-.245.644.644 0 0 0-.419-.4.668.668 0 0 0-.24-.043H6.248a.676.676 0 0 0-.255.046.675.675 0 0 0-.404.4.616.616 0 0 0-.047.246v6.463a.601.601 0 0 0 .047.245.645.645 0 0 0 .419.4.668.668 0 0 0 .24.043h10.504a.677.677 0 0 0 .255-.046.675.675 0 0 0 .403-.401ZM6.536 8.843h7.57a.172.172 0 0 1 .157.167v5.982a.166.166 0 0 1-.168.167H6.536a.169.169 0 0 1-.168-.167V9.01a.17.17 0 0 1 .168-.167Zm1.691 4.146c.05.26.04.526-.028.781.802-.272.959-1.417.441-2.037a1.74 1.74 0 0 1-.364-1.501c-.784.279-.88 1.46-.365 2.04.158.213.266.458.316.717Zm2.06 0c.049.26.038.527-.031.781.806-.272.962-1.417.444-2.037a1.73 1.73 0 0 1-.364-1.501c-.784.279-.879 1.46-.365 2.04.159.213.266.458.316.717Zm2.059 0c.049.26.039.527-.03.781.806-.272.963-1.417.445-2.037a1.729 1.729 0 0 1-.365-1.501c-.784.279-.879 1.46-.365 2.04.158.213.265.458.315.717Zm3.492-4.146a.79.79 0 1 0 .794.79.797.797 0 0 0-.794-.79Zm-.552 2.58a.837.837 0 0 1 .555-.212.84.84 0 0 1 .555.214.698.698 0 0 1 .234.581.369.369 0 0 1-.023.087c0 .185-.08.363-.224.493a.806.806 0 0 1-.542.204.806.806 0 0 1-.541-.204.667.667 0 0 1-.224-.493l-.023-.087v-.077a.694.694 0 0 1 .233-.505Z" clip-rule="evenodd"/>
  <defs>
    <linearGradient id="a" x1="-3.2" x2="17.805" y1="3.685" y2="14.661" gradientUnits="userSpaceOnUse">
      <stop stop-color="#0EA5E9"/>
      <stop offset="1" stop-color="#0369A1"/>
    </linearGradient>
  </defs>
</svg>
