<svg width="157" height="24" viewBox="0 0 157 24" fill="none" xmlns="http://www.w3.org/2000/svg">
<g clip-path="url(#clip0_736_1818)">
<path d="M99.4925 0.00891113H89.7761C88.6685 0.00890859 87.6061 0.448276 86.8221 1.23063C86.038 2.01299 85.5964 3.07444 85.594 4.18205V23.982H89.4V3.84175C89.4 3.38098 89.583 2.93908 89.9088 2.61327C90.2346 2.28746 90.6765 2.10443 91.1373 2.10443H98.1313C98.5921 2.10443 99.034 2.28746 99.3598 2.61327C99.6856 2.93908 99.8686 3.38098 99.8686 3.84175V23.982H101.946C102.174 23.9832 102.399 23.9393 102.609 23.8529C102.819 23.7664 103.01 23.6392 103.171 23.4785C103.332 23.3177 103.459 23.1267 103.545 22.9165C103.632 22.7063 103.676 22.481 103.675 22.2537V4.18205C103.672 3.07444 103.231 2.01299 102.447 1.23063C101.662 0.448276 100.6 0.00890859 99.4925 0.00891113Z" fill="url(#paint0_linear_736_1818)"/>
<path d="M156.018 3.24178C155.937 2.88264 155.807 2.5362 155.633 2.21193C155.595 2.13349 155.55 2.05857 155.499 1.98805C155.033 1.22551 154.332 0.634735 153.501 0.304465C153.27 0.207057 153.03 0.132085 152.785 0.0805846L152.436 0.0268555H152.212H141.958H141.734L141.385 0.0805846C141.143 0.1321 140.906 0.20708 140.678 0.304465C139.847 0.634735 139.146 1.22551 138.681 1.98805C138.629 2.05857 138.584 2.13349 138.546 2.21193C138.223 2.81847 138.054 3.49497 138.054 4.18209V19.8179C138.053 20.1344 138.089 20.45 138.161 20.7582C138.239 21.1112 138.366 21.4518 138.537 21.7701C138.575 21.8486 138.62 21.9235 138.672 21.994C139.124 22.7545 139.813 23.3458 140.633 23.6776C140.854 23.7763 141.085 23.8513 141.322 23.9015L141.734 23.9731H141.958H152.239H152.463L152.884 23.9015C153.12 23.8499 153.351 23.7749 153.573 23.6776C154.391 23.3424 155.079 22.7519 155.534 21.994C155.586 21.9235 155.631 21.8486 155.669 21.7701C155.84 21.4518 155.967 21.1112 156.045 20.7582C156.117 20.45 156.153 20.1344 156.152 19.8179V4.18209C156.144 3.86451 156.099 3.54893 156.018 3.24178ZM152.328 20.1492C152.323 20.4882 152.222 20.8188 152.037 21.1025C151.851 21.3863 151.589 21.6116 151.281 21.7522C151.062 21.8452 150.828 21.8939 150.591 21.8955H143.588C143.234 21.8948 142.889 21.7865 142.597 21.585C142.306 21.3835 142.083 21.0983 141.958 20.7672C141.883 20.5697 141.844 20.3605 141.842 20.1492V3.83283C141.843 3.61859 141.882 3.40626 141.958 3.20595C142.09 2.87998 142.315 2.60003 142.605 2.40097C142.894 2.20191 143.236 2.09255 143.588 2.08655H150.591C150.943 2.08712 151.286 2.19445 151.575 2.39433C151.865 2.59421 152.087 2.87721 152.212 3.20595C152.288 3.40626 152.327 3.61859 152.328 3.83283V20.1492Z" fill="url(#paint1_linear_736_1818)"/>
<path d="M80.9373 2.23879C80.8992 2.16034 80.8543 2.08542 80.803 2.01491C80.337 1.25237 79.6363 0.661591 78.806 0.331321C78.5749 0.233912 78.335 0.158941 78.0895 0.10744L77.7403 0.0537109H77.5164H67.2627H67.0388L66.6895 0.10744C66.4441 0.158941 66.2042 0.233912 65.9731 0.331321C65.1428 0.661591 64.442 1.25237 63.9761 2.01491L63.8507 2.23879C63.5279 2.84533 63.3587 3.52183 63.3582 4.20895V17.5612V19.8448C63.349 20.0028 63.349 20.1613 63.3582 20.3194C63.4181 20.8359 63.5729 21.3368 63.8149 21.797L63.9403 22.0209V22.0746C63.985 22.1462 64.0298 22.2268 64.0836 22.2985C64.1168 22.3425 64.1526 22.3843 64.191 22.4239L64.397 22.6657L64.5045 22.791L64.6298 22.8985L64.8448 23.0955L64.997 23.2209L65.1582 23.3194L65.3283 23.4358C65.473 23.5193 65.6225 23.5941 65.7761 23.6597L65.8477 23.7045C66.0727 23.8018 66.3066 23.8768 66.5462 23.9283L66.9582 24H67.1821H81.3492V23.6597C81.3508 23.4548 81.3144 23.2513 81.2418 23.0597C81.1498 22.8103 81.0019 22.5854 80.8094 22.4022C80.6169 22.219 80.3849 22.0825 80.1313 22.003C79.9914 21.9633 79.8469 21.9422 79.7015 21.9403H68.8925C68.5385 21.9396 68.193 21.8313 67.902 21.6298C67.6109 21.4283 67.3879 21.143 67.2627 20.8119C67.1995 20.6487 67.1632 20.4763 67.1552 20.3015C67.151 20.2838 67.151 20.2654 67.1552 20.2477V15.4925H77.5254H77.7492C77.9001 15.4752 78.0496 15.4482 78.197 15.4119C78.4337 15.3603 78.6647 15.2853 78.8865 15.188C79.698 14.8496 80.3793 14.2594 80.8298 13.5044L80.9642 13.2806C81.1288 12.9633 81.2522 12.6262 81.3313 12.2776C81.4 11.9839 81.4361 11.6836 81.4388 11.3821V4.28058C81.4382 3.59346 81.2691 2.91696 80.9463 2.31042L80.9373 2.23879ZM77.6328 11.6239C77.6318 11.8381 77.5924 12.0504 77.5164 12.2507C77.4302 12.4782 77.2971 12.685 77.1259 12.8578C76.9547 13.0306 76.749 13.1654 76.5224 13.2537C76.3221 13.3297 76.1097 13.3691 75.8955 13.3701H67.1642V3.83282C67.1652 3.61858 67.2046 3.40625 67.2806 3.20594C67.4602 2.76999 67.8045 2.42248 68.2388 2.23879C68.4469 2.15651 68.6687 2.11398 68.8925 2.1134H75.8955C76.1193 2.11398 76.3411 2.15651 76.5492 2.23879C76.7703 2.32871 76.9704 2.46346 77.1369 2.63454C77.3033 2.80562 77.4326 3.00931 77.5164 3.2328C77.5924 3.43312 77.6318 3.64544 77.6328 3.85968V11.6239Z" fill="url(#paint2_linear_736_1818)"/>
<path d="M109.908 0.18811H109.576C108.617 0.18811 107.839 0.965932 107.839 1.92542V2.25677C107.839 3.21626 108.617 3.99408 109.576 3.99408H109.908C110.867 3.99408 111.645 3.21626 111.645 2.25677V1.92542C111.645 0.965932 110.867 0.18811 109.908 0.18811Z" fill="url(#paint3_linear_736_1818)"/>
<path d="M107.839 9.40298V23.9911H111.645V7.61194H109.585C109.118 7.62362 108.674 7.81747 108.348 8.1521C108.021 8.48673 107.839 8.93563 107.839 9.40298Z" fill="url(#paint4_linear_736_1818)"/>
<path d="M24.8597 4.1731H6.26864C6.1601 4.17538 6.05664 4.2195 5.97988 4.29627C5.90311 4.37303 5.85898 4.47649 5.85669 4.58503V19.3611C5.85669 19.4704 5.90009 19.5752 5.97735 19.6524C6.0546 19.7297 6.15938 19.7731 6.26864 19.7731H24.8328C24.9421 19.7731 25.0468 19.7297 25.1241 19.6524C25.2014 19.5752 25.2448 19.4704 25.2448 19.3611V4.58503C25.2429 4.48089 25.2025 4.38113 25.1314 4.30504C25.0603 4.22895 24.9635 4.18194 24.8597 4.1731ZM10.3522 16.3432C10.5201 15.7132 10.5436 15.0535 10.4211 14.4131C10.2986 13.7728 10.0333 13.1683 9.64476 12.6447C8.38207 11.2119 8.61491 8.29249 10.5403 7.60293C10.3949 8.24818 10.4 8.91827 10.5553 9.56121C10.7106 10.2041 11.0119 10.8027 11.4358 11.3104C12.7074 12.8418 12.3224 15.6716 10.3522 16.3432ZM15.403 16.3432C15.574 15.7141 15.6001 15.0543 15.4791 14.4137C15.3581 13.773 15.0932 13.1681 14.7045 12.6447C13.4418 11.2119 13.6746 8.29249 15.6 7.60293C15.4525 8.24808 15.4566 8.91863 15.612 9.56192C15.7674 10.2052 16.0698 10.8037 16.4955 11.3104C17.7671 12.8418 17.3821 15.6716 15.403 16.3432ZM20.4627 16.3432C20.6318 15.7139 20.6568 15.0545 20.5358 14.4142C20.4149 13.7739 20.1511 13.169 19.7642 12.6447C18.5015 11.2119 18.7343 8.29249 20.6597 7.60293C20.5122 8.24808 20.5163 8.91863 20.6717 9.56192C20.8271 10.2052 21.1295 10.8037 21.5552 11.3104C22.8269 12.8418 22.4418 15.6716 20.4627 16.3432Z" fill="url(#paint5_linear_736_1818)"/>
<path d="M36.8239 3.26864C36.7447 2.89494 36.6088 2.53555 36.4209 2.20297C36.3845 2.12544 36.3426 2.05062 36.2955 1.97909C35.8275 1.21138 35.1193 0.619574 34.2806 0.295501C34.0407 0.19681 33.7918 0.121825 33.5373 0.0716207L33.2418 0.0268555H33.0179H3.91343H3.68955L3.39402 0.0716207C3.13955 0.121825 2.89062 0.19681 2.65075 0.295501C1.81208 0.619574 1.10381 1.21138 0.635827 1.97909C0.588737 2.05062 0.546839 2.12544 0.510454 2.20297C0.182383 2.80831 0.00714817 3.48464 0 4.17313V19.7821C0.000699861 20.0838 0.0367626 20.3843 0.107458 20.6776C0.186624 21.0513 0.322537 21.4107 0.510454 21.7433C0.546839 21.8208 0.588737 21.8956 0.635827 21.9672C1.10381 22.7349 1.81208 23.3267 2.65075 23.6507C2.89062 23.7494 3.13955 23.8244 3.39402 23.8746L3.68955 23.9194H3.91343H33.0179H33.2418L33.5373 23.8746C33.7918 23.8244 34.0407 23.7494 34.2806 23.6507C35.1193 23.3267 35.8275 22.7349 36.2955 21.9672C36.3426 21.8956 36.3845 21.8208 36.4209 21.7433C36.749 21.1379 36.9242 20.4616 36.9314 19.7731V4.18209C36.9321 3.87442 36.896 3.56775 36.8239 3.26864ZM33.1343 20.1492C33.1372 20.3609 33.0976 20.571 33.0179 20.7672C32.9375 20.9989 32.8066 21.2099 32.6347 21.3849C32.4628 21.5599 32.2542 21.6945 32.0239 21.7791C31.8246 21.8588 31.6116 21.8984 31.397 21.8955H5.53432C5.33231 21.8971 5.13183 21.8606 4.94329 21.788C4.70543 21.7098 4.48879 21.5778 4.31019 21.4023C4.13159 21.2268 3.99582 21.0126 3.91343 20.7761C3.83279 20.5803 3.79318 20.37 3.79702 20.1582V3.85969C3.79417 3.64801 3.83375 3.43791 3.91343 3.24178C3.99386 3.01003 4.12476 2.79906 4.29667 2.62406C4.46857 2.44906 4.67719 2.31439 4.90746 2.22983C5.10671 2.15014 5.31974 2.11057 5.53432 2.11341H31.397C31.599 2.11188 31.7995 2.14836 31.9881 2.2209C32.2259 2.29913 32.4426 2.4311 32.6212 2.60659C32.7998 2.78209 32.9355 2.99637 33.0179 3.23281C33.0985 3.42866 33.1382 3.63896 33.1343 3.85073V20.1492Z" fill="url(#paint6_linear_736_1818)"/>
<path d="M29.203 4.1731C28.8385 4.17487 28.4827 4.28456 28.1806 4.48834C27.8784 4.69212 27.6433 4.98084 27.5051 5.31808C27.3668 5.65532 27.3315 6.02597 27.4037 6.38323C27.4759 6.74049 27.6523 7.06836 27.9107 7.32546C28.169 7.58256 28.4977 7.75737 28.8553 7.82783C29.2129 7.89828 29.5834 7.86124 29.92 7.72135C30.2565 7.58147 30.5441 7.34501 30.7464 7.04184C30.9488 6.73866 31.0567 6.38235 31.0567 6.01787C31.052 5.52851 30.8549 5.06065 30.5081 4.71544C30.1612 4.37024 29.6924 4.17543 29.203 4.1731Z" fill="url(#paint7_linear_736_1818)"/>
<path d="M29.2029 9.94922C28.7151 9.95389 28.2486 10.1498 27.9036 10.4947C27.5587 10.8397 27.3628 11.3062 27.3582 11.794V11.991L27.4119 12.2149C27.4119 12.6899 27.6006 13.1455 27.9365 13.4814C28.2724 13.8172 28.7279 14.006 29.2029 14.006C29.6779 14.006 30.1335 13.8172 30.4694 13.4814C30.8053 13.1455 30.994 12.6899 30.994 12.2149C31.0203 12.1426 31.0383 12.0675 31.0477 11.991C31.0522 11.9254 31.0522 11.8596 31.0477 11.794C31.0408 11.3069 30.8442 10.8417 30.4997 10.4972C30.1552 10.1528 29.69 9.95616 29.2029 9.94922Z" fill="url(#paint8_linear_736_1818)"/>
<path d="M58.7015 2.23879C58.6634 2.16034 58.6185 2.08542 58.5672 2.01491C58.1013 1.25237 57.4005 0.661591 56.5702 0.331321C56.3391 0.233912 56.0992 0.158941 55.8537 0.10744L55.4955 0.0537109H55.2717H41.1045V24.0537H55.2717H55.4955L55.9075 23.9821C56.1474 23.9315 56.3814 23.8565 56.606 23.7582C57.4228 23.4208 58.11 22.8308 58.5672 22.0746C58.6185 22.0041 58.6634 21.9292 58.7015 21.8507C58.8729 21.5324 58.9995 21.1918 59.0776 20.8388C59.1497 20.5306 59.1858 20.215 59.1851 19.8985V12.7164C59.1837 12.4148 59.1476 12.1143 59.0776 11.8209C58.9907 11.4483 58.8456 11.0916 58.6478 10.7642C58.6117 10.6847 58.5666 10.6095 58.5135 10.5403C58.2858 10.2045 58.0114 9.90296 57.6985 9.64475C57.958 9.42283 58.1895 9.17024 58.3881 8.89251C58.4497 8.82176 58.5066 8.74697 58.5582 8.66863C58.7946 8.29586 58.97 7.88773 59.0776 7.45967C59.1576 7.14966 59.1967 6.83055 59.1941 6.51042V4.24475C59.1928 3.55772 59.0237 2.88142 58.7015 2.27462V2.23879ZM55.3881 20.1492C55.3871 20.3635 55.3476 20.5758 55.2717 20.7761C55.1825 21.0062 55.0453 21.2147 54.8693 21.3876C54.6933 21.5605 54.4824 21.694 54.2508 21.7791C54.0591 21.8517 53.8557 21.8881 53.6508 21.8866H45.0179H44.9015V10.6209H53.6508C53.865 10.6219 54.0773 10.6613 54.2776 10.7373C54.5043 10.8256 54.7099 10.9605 54.8811 11.1332C55.0524 11.306 55.1854 11.5128 55.2717 11.7403C55.3476 11.9406 55.3871 12.1529 55.3881 12.3671V20.1492ZM55.3881 6.79699C55.3894 7.03049 55.3436 7.26186 55.2535 7.47727C55.1634 7.69268 55.0308 7.88769 54.8636 8.05069C54.6964 8.2137 54.4981 8.34135 54.2805 8.42598C54.0629 8.51061 53.8304 8.5505 53.597 8.54327H44.8567V2.0955H53.597C53.821 2.09477 54.043 2.13735 54.2508 2.22089C54.6884 2.40263 55.0362 2.7504 55.2179 3.18804C55.3015 3.39583 55.344 3.61783 55.3433 3.84178L55.3881 6.79699Z" fill="url(#paint9_linear_736_1818)"/>
<path d="M133.433 2.23879C133.395 2.16034 133.35 2.08542 133.299 2.01491C132.833 1.25237 132.132 0.661591 131.302 0.331321C131.071 0.233912 130.831 0.158941 130.585 0.10744L130.236 0.0537109H130.012H115.809V24.0537H119.606V15.5194H129.976H130.2C130.351 15.502 130.501 15.4751 130.648 15.4388C130.885 15.3872 131.116 15.3122 131.337 15.2149C132.149 14.8765 132.83 14.2863 133.281 13.5313L133.415 13.3074C133.58 12.9901 133.703 12.6531 133.782 12.3045C133.851 12.0108 133.887 11.7105 133.89 11.4089V4.30744C133.917 3.59019 133.759 2.87799 133.433 2.23879ZM130.093 11.6239C130.094 11.8002 130.066 11.9755 130.012 12.1433C129.936 12.3959 129.803 12.6276 129.623 12.8203C129.443 13.0129 129.22 13.1612 128.973 13.2537C128.776 13.3286 128.567 13.3681 128.355 13.3701H119.642V2.08654H128.355C128.576 2.0865 128.795 2.12909 129 2.21192C129.24 2.30857 129.456 2.45761 129.631 2.64818C129.806 2.83875 129.936 3.06605 130.012 3.31343C130.066 3.48117 130.094 3.6565 130.093 3.83282V11.6239Z" fill="url(#paint10_linear_736_1818)"/>
</g>
<defs>
<linearGradient id="paint0_linear_736_1818" x1="39.8776" y1="11.991" x2="322.746" y2="11.991" gradientUnits="userSpaceOnUse">
<stop offset="0.01" stop-color="#0369A1"/>
<stop offset="1" stop-color="#082F49"/>
</linearGradient>
<linearGradient id="paint1_linear_736_1818" x1="34.6567" y1="12" x2="317.516" y2="12" gradientUnits="userSpaceOnUse">
<stop offset="0.01" stop-color="#0369A1"/>
<stop offset="1" stop-color="#082F49"/>
</linearGradient>
<linearGradient id="paint2_linear_736_1818" x1="41.6239" y1="12" x2="324.493" y2="12" gradientUnits="userSpaceOnUse">
<stop offset="0.01" stop-color="#0369A1"/>
<stop offset="1" stop-color="#082F49"/>
</linearGradient>
<linearGradient id="paint3_linear_736_1818" x1="38.1404" y1="2.08662" x2="321" y2="2.08662" gradientUnits="userSpaceOnUse">
<stop offset="0.01" stop-color="#0369A1"/>
<stop offset="1" stop-color="#082F49"/>
</linearGradient>
<linearGradient id="paint4_linear_736_1818" x1="38.1404" y1="15.8149" x2="321" y2="15.8149" gradientUnits="userSpaceOnUse">
<stop offset="0.01" stop-color="#0369A1"/>
<stop offset="1" stop-color="#082F49"/>
</linearGradient>
<linearGradient id="paint5_linear_736_1818" x1="-17.2836" y1="-3.65376" x2="33.7074" y2="20.597" gradientUnits="userSpaceOnUse">
<stop stop-color="#0EA5E9"/>
<stop offset="1" stop-color="#0369A1"/>
</linearGradient>
<linearGradient id="paint6_linear_736_1818" x1="-16.7552" y1="-4.77314" x2="34.2358" y2="19.4866" gradientUnits="userSpaceOnUse">
<stop stop-color="#0EA5E9"/>
<stop offset="1" stop-color="#0369A1"/>
</linearGradient>
<linearGradient id="paint7_linear_736_1818" x1="-12.4566" y1="-13.8" x2="38.5344" y2="10.4596" gradientUnits="userSpaceOnUse">
<stop stop-color="#0EA5E9"/>
<stop offset="1" stop-color="#0369A1"/>
</linearGradient>
<linearGradient id="paint8_linear_736_1818" x1="-15.3314" y1="-9.38523" x2="35.6687" y2="14.8743" gradientUnits="userSpaceOnUse">
<stop stop-color="#0EA5E9"/>
<stop offset="1" stop-color="#0369A1"/>
</linearGradient>
<linearGradient id="paint9_linear_736_1818" x1="43.3612" y1="12" x2="326.221" y2="12" gradientUnits="userSpaceOnUse">
<stop offset="0.01" stop-color="#0369A1"/>
<stop offset="1" stop-color="#082F49"/>
</linearGradient>
<linearGradient id="paint10_linear_736_1818" x1="36.4031" y1="12" x2="319.263" y2="12" gradientUnits="userSpaceOnUse">
<stop offset="0.01" stop-color="#0369A1"/>
<stop offset="1" stop-color="#082F49"/>
</linearGradient>
<clipPath id="clip0_736_1818">
<rect width="157" height="24" fill="white"/>
</clipPath>
</defs>
</svg>
