<svg xmlns="http://www.w3.org/2000/svg" width="344" height="96" fill="none" viewBox="0 0 344 96">
  <rect width="344" height="96" fill="url(#a)" rx="12"/>
  <path fill="#fff" d="M210.893 37.936h.032c.342 0 .603-.096.784-.288.192-.203.288-.47.288-.8 0-.32-.101-.779-.304-1.376a21.164 21.164 0 0 0-.56-1.52l1.472-.816c.214.459.427 1.061.64 1.808.224.736.336 1.387.336 1.952 0 .576-.112 1.099-.336 1.568-.224.47-.538.843-.944 1.12a2.38 2.38 0 0 1-1.376.416h-.032v-2.064Zm-4.32 0h.064c.566 0 1.019-.32 1.36-.96.214-.416.395-1.061.544-1.936l1.504.064c-.128.64-.192 1.157-.192 1.552 0 .853.352 1.28 1.056 1.28h.048l.096 1.024-.096 1.04h-.048c-.586 0-1.072-.165-1.456-.496-.384-.33-.645-.795-.784-1.392l.368-.016c-.288.587-.64 1.05-1.056 1.392a2.057 2.057 0 0 1-1.36.512h-.048v-2.064Zm.064 2.064c-.682 0-1.242-.277-1.68-.832-.426-.555-.736-1.259-.928-2.112l1.088-.672c.128.395.246.699.352.912.118.203.272.363.464.48.203.107.47.16.8.16L206.637 40Zm-6.272 4.656c-.992 0-1.861-.197-2.608-.592a4.231 4.231 0 0 1-1.728-1.648c-.394-.693-.592-1.488-.592-2.384a7 7 0 0 1 .336-2.064c.224-.736.48-1.403.768-2l1.392.64c-.277.608-.49 1.168-.64 1.68a5.31 5.31 0 0 0-.224 1.52c0 .917.283 1.605.848 2.064.566.47 1.382.704 2.448.704.79 0 1.467-.139 2.032-.416.576-.267 1.008-.624 1.296-1.072.288-.437.432-.901.432-1.392 0-.65-.325-1.952-.976-3.904l1.52-.784c.662 1.867.992 3.43.992 4.688 0 .875-.218 1.69-.656 2.448-.426.757-1.045 1.365-1.856 1.824-.8.459-1.728.688-2.784.688Zm5.984-12.768.8-.8.4-.4 1.216 1.2-.816.816-.4.4-.304-.304c-.501-.501-.8-.805-.896-.912Zm4.192-1.2 1.2 1.2-1.2 1.216-.8-.8-.416-.416 1.216-1.2Zm-2.224-.992.72-.72 1.072 1.072-1.072 1.088-1.072-1.088.352-.352Zm4.511 13.2a9.7 9.7 0 0 0 1.904-.976c.576-.384 1.029-.773 1.36-1.168.331-.395.496-.747.496-1.056 0-.235-.064-.624-.192-1.168a93.124 93.124 0 0 0-.512-2.08 11.641 11.641 0 0 1-.176-.672l1.6-.624c.245.747.443 1.541.592 2.384.16.832.24 1.552.24 2.16 0 1.013-.416 1.957-1.248 2.832-.821.875-1.899 1.579-3.232 2.112l-.832-1.744ZM223.213 40c-1.162 0-1.984-.315-2.464-.944-.48-.63-.72-1.616-.72-2.96a75.4 75.4 0 0 0-.112-3.968c-.064-1.43-.154-2.544-.272-3.344l1.744-.4c.107.757.192 1.904.256 3.44.064 1.525.091 2.843.08 3.952-.01.587.016 1.03.08 1.328.064.288.203.501.416.64.214.128.544.192.992.192h.08l.096 1.024-.096 1.04h-.08Zm-.106-2.064h.384c1.088 0 1.962-.059 2.624-.176.661-.128 1.162-.315 1.504-.56.341-.245.586-.565.736-.96.032-.245 0-.496-.096-.752a1.51 1.51 0 0 0-.448-.656 1.044 1.044 0 0 0-.72-.256c-.342 0-.64.15-.896.448a1.87 1.87 0 0 0-.464 1.008c.01.32.149.624.416.912.277.288.677.528 1.2.72.522.181 1.136.272 1.84.272h1.696l.112 1.024-.112 1.04h-.96c-1.088 0-2.07-.165-2.944-.496-.875-.341-1.558-.795-2.048-1.36-.491-.576-.736-1.2-.736-1.872 0-.096.01-.23.032-.4a4.658 4.658 0 0 1 .576-1.648c.298-.501.656-.896 1.072-1.184a2.362 2.362 0 0 1 1.344-.432c.522 0 .986.165 1.392.496.405.32.72.741.944 1.264.224.512.336 1.04.336 1.584 0 .107-.011.267-.032.48-.171 1.216-.784 2.117-1.84 2.704-1.046.576-2.555.864-4.528.864h-.384v-2.064Zm4.112-8.976.912.912.448.448-1.36 1.376-1.36-1.376 1.36-1.36Zm12.395 8.976h.032c.341 0 .602-.096.784-.288.192-.203.288-.47.288-.8 0-.32-.102-.779-.304-1.376a22.177 22.177 0 0 0-.56-1.52l1.472-.816c.213.459.426 1.061.64 1.808.224.736.336 1.387.336 1.952 0 .576-.112 1.099-.336 1.568a2.77 2.77 0 0 1-.944 1.12 2.381 2.381 0 0 1-1.376.416h-.032v-2.064Zm-4.32 0h.064c.565 0 1.018-.32 1.36-.96.213-.416.394-1.061.544-1.936l1.504.064c-.128.64-.192 1.157-.192 1.552 0 .853.352 1.28 1.056 1.28h.048l.096 1.024-.096 1.04h-.048c-.587 0-1.072-.165-1.456-.496-.384-.33-.646-.795-.784-1.392l.368-.016c-.288.587-.64 1.05-1.056 1.392a2.06 2.06 0 0 1-1.36.512h-.048v-2.064ZM230.734 40l-.112-1.04.112-1.024h.064c.352 0 .693-.08 1.024-.24.33-.16.581-.357.752-.592a3.09 3.09 0 0 0 .512-.912c.128-.33.234-.677.32-1.04l1.504.16c0 .01-.027.133-.08.368-.16.619-.24 1.077-.24 1.376 0 .299.058.523.176.672.117.139.304.208.56.208h.032l.112 1.024-.112 1.04h-.064c-.47 0-.875-.128-1.216-.384a1.885 1.885 0 0 1-.656-1.056c-.342.47-.736.827-1.184 1.072a2.985 2.985 0 0 1-1.456.368h-.048Zm16.983-.368c.63-1.877 1.616-3.45 2.96-4.72 1.355-1.27 2.811-2.213 4.368-2.832l.352 2.064c-1.237.47-2.432 1.243-3.584 2.32-1.141 1.077-2.01 2.373-2.608 3.888l-1.488-.72Zm6.208-4.848c-.821.416-1.584.624-2.288.624-.629 0-1.184-.15-1.664-.448a3.216 3.216 0 0 1-1.088-1.184 3.463 3.463 0 0 1-.368-1.568 3.664 3.664 0 0 1 1.44-2.896c.48-.373 1.062-.608 1.744-.704.192-.021.331-.032.416-.032a3.5 3.5 0 0 1 1.312.256c.438.17.784.363 1.04.576l-.688 1.456a3.27 3.27 0 0 0-1.424-.32c-.096 0-.25.01-.464.032-.522.064-.949.256-1.28.576-.32.32-.48.661-.48 1.024 0 .299.15.555.448.768.299.213.688.32 1.168.32.576 0 1.179-.16 1.808-.48l.368 2Zm-60.772 29.258c-.504 0-.943-.098-1.316-.294a2.166 2.166 0 0 1-.84-.826 2.285 2.285 0 0 1-.294-1.148c0-.215.028-.434.084-.658.243-.97.882-1.937 1.918-2.898l.686.826c-1.083.905-1.624 1.76-1.624 2.562 0 .364.121.653.364.868.243.215.597.322 1.064.322.439 0 .803-.098 1.092-.294.289-.196.439-.457.448-.784.028-.541-.196-1.069-.672-1.582-.467-.513-1.246-1.101-2.338-1.764l.63-1.008c1.167.681 2.03 1.358 2.59 2.03.56.672.84 1.386.84 2.142 0 .485-.117.92-.35 1.302a2.443 2.443 0 0 1-.952.896 2.877 2.877 0 0 1-1.33.308ZM204.166 64c-.588 0-1.092-.15-1.512-.448-.42-.308-.775-.793-1.064-1.456l-1.96-4.578 1.008-.532 1.918 4.536c.186.457.396.775.63.952.242.177.569.266.98.266h.154l.07.63-.07.63h-.154Zm-4.662.056c-.635 0-1.181-.098-1.638-.294a6.344 6.344 0 0 1-1.26-.714l.546-.924c.364.215.714.392 1.05.532.336.13.737.196 1.204.196.578 0 1.064-.089 1.456-.266a7.343 7.343 0 0 0 1.148-.686l.56.798a9.994 9.994 0 0 1-.742.63c-.234.177-.551.345-.952.504-.402.15-.859.224-1.372.224Zm12.49-1.316h.028c.7 0 1.05-.387 1.05-1.162 0-.317-.093-.76-.28-1.33-.177-.579-.336-1.017-.476-1.316l.994-.546c.187.392.373.905.56 1.54.187.625.28 1.176.28 1.652 0 .457-.093.873-.28 1.246a2.13 2.13 0 0 1-.756.868 1.964 1.964 0 0 1-1.092.308h-.028v-1.26Zm-3.78 0h.042c.523 0 .971-.327 1.344-.98.121-.224.215-.49.28-.798.075-.308.145-.649.21-1.022l1.036.056a18.7 18.7 0 0 0-.098.518 5.006 5.006 0 0 0-.084.896c0 .448.084.784.252 1.008.177.215.453.322.826.322h.028l.07.63-.07.63h-.028c-.541 0-.975-.159-1.302-.476-.317-.327-.509-.78-.574-1.358l.224-.014a3.363 3.363 0 0 1-.868 1.33c-.373.345-.793.518-1.26.518h-.028v-1.26ZM204.21 64l-.07-.63.07-.63h.07c.345 0 .672-.08.98-.238.308-.159.546-.369.714-.63.177-.252.313-.518.406-.798.103-.28.205-.611.308-.994l1.05.112a7.624 7.624 0 0 0-.112.42c-.056.224-.103.434-.14.63a3.794 3.794 0 0 0-.042.532c0 .644.261.966.784.966h.028l.07.63-.07.63h-.042c-.429 0-.789-.126-1.078-.378-.28-.261-.448-.611-.504-1.05-.289.467-.635.821-1.036 1.064a2.521 2.521 0 0 1-1.33.364h-.056Zm5.138-7.98.952.938-.952.952-.938-.952.938-.938Zm2.576 0 .938.938-.938.952-.952-.952.952-.938Zm-1.288-1.428.84.84-.84.854-.854-.854.854-.84ZM229.407 64a1.88 1.88 0 0 1-1.12-.35 2.35 2.35 0 0 1-.756-.994 3.425 3.425 0 0 1-.21-1.442l.644-.126c.028.439.089.775.182 1.008a.957.957 0 0 0 .42.504c.196.093.476.14.84.14h.154l.07.63-.07.63h-.154Zm-5.46 3.514c-.718 0-1.372-.15-1.96-.448a3.48 3.48 0 0 1-1.386-1.232c-.336-.532-.504-1.148-.504-1.848 0-.495.089-1.05.266-1.666.178-.616.392-1.18.644-1.694l.952.462c-.513 1.045-.77 1.955-.77 2.73 0 .728.248 1.316.742 1.764.504.448 1.176.672 2.016.672 1.055 0 1.83-.285 2.324-.854.495-.57.719-1.423.672-2.562-.168-4.228-.317-7.01-.448-8.344l1.106-.238c.094.952.238 3.794.434 8.526.056 1.493-.275 2.655-.994 3.486-.709.83-1.74 1.246-3.094 1.246Zm5.473-4.774h.56c.999 0 1.704-.093 2.114-.28.411-.196.616-.513.616-.952-.009-.29-.107-.728-.294-1.316-.177-.597-.331-1.027-.462-1.288l1.008-.532c.187.364.369.859.546 1.484.187.616.28 1.153.28 1.61 0 .83-.303 1.46-.91 1.89-.606.43-1.521.644-2.744.644h-.714v-1.26Zm2.66 4.55-.994-.994.994-.994.994.994-.994.994Zm-2.506 0-.994-.994.994-.994.994.994-.994.994Zm5.203-.392c1.494-.327 2.6-.77 3.318-1.33.719-.55 1.078-1.246 1.078-2.086 0-.541-.07-1.083-.21-1.624-.14-.55-.35-1.008-.63-1.372-.27-.373-.592-.574-.966-.602-.205-.01-.406.075-.602.252a1.967 1.967 0 0 0-.476.686c-.121.28-.182.546-.182.798a.99.99 0 0 0 .126.518c.15.243.5.406 1.05.49.551.075 1.26.112 2.128.112h1.232l.07.63-.07.63-1.694.014c-.952 0-1.731-.08-2.338-.238-.606-.159-1.031-.471-1.274-.938a2.325 2.325 0 0 1-.224-1.05c0-.485.103-.97.308-1.456.215-.485.495-.887.84-1.204.355-.317.733-.476 1.134-.476.551 0 1.036.243 1.456.728.42.485.742 1.097.966 1.834.224.728.336 1.447.336 2.156 0 1.157-.443 2.142-1.33 2.954-.877.812-2.104 1.377-3.682 1.694l-.364-1.12ZM251.065 64c-.924-.01-1.661-.2-2.212-.574-.541-.373-.905-.943-1.092-1.708l.728-.532c.103.457.378.83.826 1.12.457.28 1.041.425 1.75.434h.14l.07.63-.07.63h-.14Zm-10.612-1.26h1.288c1.167 0 2.254-.14 3.262-.42a15.563 15.563 0 0 0 3.052-1.246 8.452 8.452 0 0 1 1.68-.7l.042.504a6.27 6.27 0 0 1-1.526-.182 7.21 7.21 0 0 1-1.484-.574 8.868 8.868 0 0 0-1.204-.532 3.234 3.234 0 0 0-1.05-.182c-.392 0-.747.117-1.064.35a2.309 2.309 0 0 0-.714.826l-.756-.518c.299-.607.667-1.064 1.106-1.372a2.45 2.45 0 0 1 1.47-.476c.392 0 .756.065 1.092.196.345.13.854.364 1.526.7a35.31 35.31 0 0 0 1.47.714c.364.15.775.27 1.232.364l.042 1.106c-.187.056-.383.13-.588.224-.196.093-.481.243-.854.448-1.26.663-2.403 1.167-3.43 1.512-1.017.345-2.119.518-3.304.518h-1.288v-1.26Zm10.61 0h.56c.998 0 1.703-.093 2.114-.28.41-.196.616-.513.616-.952-.01-.29-.108-.728-.294-1.316-.178-.597-.332-1.027-.462-1.288l1.008-.532c.186.364.368.859.546 1.484.186.616.28 1.153.28 1.61 0 .83-.304 1.46-.91 1.89-.607.43-1.522.644-2.744.644h-.714v-1.26Zm1.33-7.154.994.994-.994.994-.994-.994.994-.994Zm2.506 0 .994.994-.994.994-.994-.994.994-.994Z"/>
  <path fill="#fff" d="M276 48c0-9.428 0-14.142 2.928-17.072C281.86 28 286.572 28 296 28c9.428 0 14.142 0 17.07 2.928C316 33.86 316 38.572 316 48c0 9.428 0 14.142-2.93 17.07C310.144 68 305.428 68 296 68s-14.142 0-17.072-2.93C276 62.144 276 57.428 276 48Z" opacity=".5"/>
  <path fill="#fff" d="M293.086 39.034a1.486 1.486 0 0 0 .44-1.08 1.493 1.493 0 0 0-.465-1.068 1.505 1.505 0 0 0-1.669-.273 1.5 1.5 0 0 0-.478.353l-4.628 4.86-1.2-1.26a1.5 1.5 0 1 0-2.172 2.068l2.286 2.4a1.504 1.504 0 0 0 1.677.344c.186-.08.355-.197.495-.344l5.714-6ZM298 40.5a1.502 1.502 0 0 0-1.061 2.56 1.5 1.5 0 0 0 1.061.44h10a1.502 1.502 0 0 0 1.061-2.56A1.502 1.502 0 0 0 308 40.5h-10Zm-4.914 12.534a1.486 1.486 0 0 0 .44-1.08 1.493 1.493 0 0 0-.465-1.068 1.505 1.505 0 0 0-1.669-.273 1.5 1.5 0 0 0-.478.353l-4.628 4.86-1.2-1.26a1.5 1.5 0 1 0-2.172 2.068l2.286 2.4a1.504 1.504 0 0 0 1.677.344c.186-.08.355-.197.495-.344l5.714-6ZM298 54.5a1.502 1.502 0 0 0-1.061 2.56 1.5 1.5 0 0 0 1.061.44h10a1.502 1.502 0 0 0 1.061-2.56A1.502 1.502 0 0 0 308 54.5h-10Z"/>
  <defs>
    <linearGradient id="a" x1="344" x2="0" y1="48" y2="48" gradientUnits="userSpaceOnUse">
      <stop stop-color="#8DC26F"/>
      <stop offset="1" stop-color="#9FD580"/>
    </linearGradient>
  </defs>
</svg>
