<svg xmlns="http://www.w3.org/2000/svg" width="344" height="96" fill="none" viewBox="0 0 344 96">
  <rect width="344" height="96" fill="url(#a)" rx="12"/>
  <path fill="#fff" d="M212.284 37.936h.032c.341 0 .603-.096.784-.288.192-.203.288-.47.288-.8 0-.32-.101-.779-.304-1.376a21.659 21.659 0 0 0-.56-1.52l1.472-.816c.213.459.427 1.061.64 1.808.224.736.336 1.387.336 1.952 0 .576-.112 1.099-.336 1.568a2.77 2.77 0 0 1-.944 1.12 2.38 2.38 0 0 1-1.376.416h-.032v-2.064Zm-4.32 0h.064c.565 0 1.019-.32 1.36-.96.213-.416.395-1.061.544-1.936l1.504.064c-.128.64-.192 1.157-.192 1.552 0 .853.352 1.28 1.056 1.28h.048l.096 1.024-.096 1.04h-.048c-.587 0-1.072-.165-1.456-.496-.384-.33-.645-.795-.784-1.392l.368-.016c-.288.587-.64 1.05-1.056 1.392a2.059 2.059 0 0 1-1.36.512h-.048v-2.064Zm.064 2.064c-.683 0-1.243-.277-1.68-.832-.427-.555-.736-1.259-.928-2.112l1.088-.672c.128.395.245.699.352.912.117.203.272.363.464.48.203.107.469.16.8.16L208.028 40Zm-6.272 4.656c-.992 0-1.861-.197-2.608-.592a4.219 4.219 0 0 1-1.728-1.648c-.395-.693-.592-1.488-.592-2.384a7 7 0 0 1 .336-2.064c.224-.736.48-1.403.768-2l1.392.64a12.585 12.585 0 0 0-.64 1.68 5.31 5.31 0 0 0-.224 1.52c0 .917.283 1.605.848 2.064.565.47 1.381.704 2.448.704.789 0 1.467-.139 2.032-.416.576-.267 1.008-.624 1.296-1.072.288-.437.432-.901.432-1.392 0-.65-.325-1.952-.976-3.904l1.52-.784c.661 1.867.992 3.43.992 4.688 0 .875-.219 1.69-.656 2.448-.427.757-1.045 1.365-1.856 1.824-.8.459-1.728.688-2.784.688Zm5.984-12.768.8-.8.4-.4 1.216 1.2-.816.816-.4.4-.304-.304c-.501-.501-.8-.805-.896-.912Zm4.192-1.2 1.2 1.2-1.2 1.216-.8-.8-.416-.416 1.216-1.2Zm-2.224-.992.72-.72 1.072 1.072-1.072 1.088-1.072-1.088.352-.352Zm4.511 13.2a9.7 9.7 0 0 0 1.904-.976c.576-.384 1.029-.773 1.36-1.168.33-.395.496-.747.496-1.056 0-.235-.064-.624-.192-1.168a93.124 93.124 0 0 0-.512-2.08 10.858 10.858 0 0 1-.176-.672l1.6-.624c.245.747.442 1.541.592 2.384.16.832.24 1.552.24 2.16 0 1.013-.416 1.957-1.248 2.832-.822.875-1.899 1.579-3.232 2.112l-.832-1.744ZM224.604 40c-1.163 0-1.984-.315-2.464-.944-.48-.63-.72-1.616-.72-2.96a75.4 75.4 0 0 0-.112-3.968c-.064-1.43-.155-2.544-.272-3.344l1.744-.4c.107.757.192 1.904.256 3.44.064 1.525.091 2.843.08 3.952-.011.587.016 1.03.08 1.328.064.288.203.501.416.64.213.128.544.192.992.192h.08l.096 1.024-.096 1.04h-.08Zm-.107-2.064h.384c1.088 0 1.963-.059 2.624-.176.662-.128 1.163-.315 1.504-.56.342-.245.587-.565.736-.96.032-.245 0-.496-.096-.752a1.502 1.502 0 0 0-.448-.656 1.044 1.044 0 0 0-.72-.256c-.341 0-.64.15-.896.448-.256.288-.41.624-.464 1.008.011.32.15.624.416.912.278.288.678.528 1.2.72.523.181 1.136.272 1.84.272h1.696l.112 1.024-.112 1.04h-.96c-1.088 0-2.069-.165-2.944-.496-.874-.341-1.557-.795-2.048-1.36-.49-.576-.736-1.2-.736-1.872 0-.096.011-.23.032-.4a4.658 4.658 0 0 1 .576-1.648c.299-.501.656-.896 1.072-1.184a2.367 2.367 0 0 1 1.344-.432c.523 0 .987.165 1.392.496.406.32.72.741.944 1.264.224.512.336 1.04.336 1.584 0 .107-.01.267-.032.48-.17 1.216-.784 2.117-1.84 2.704-1.045.576-2.554.864-4.528.864h-.384v-2.064Zm4.112-8.976.912.912.448.448-1.36 1.376-1.36-1.376 1.36-1.36Zm12.395 8.976h.032c.342 0 .603-.096.784-.288.192-.203.288-.47.288-.8 0-.32-.101-.779-.304-1.376a21.164 21.164 0 0 0-.56-1.52l1.472-.816c.214.459.427 1.061.64 1.808.224.736.336 1.387.336 1.952 0 .576-.112 1.099-.336 1.568-.224.47-.538.843-.944 1.12a2.38 2.38 0 0 1-1.376.416h-.032v-2.064Zm-4.32 0h.064c.566 0 1.019-.32 1.36-.96.214-.416.395-1.061.544-1.936l1.504.064c-.128.64-.192 1.157-.192 1.552 0 .853.352 1.28 1.056 1.28h.048l.096 1.024-.096 1.04h-.048c-.586 0-1.072-.165-1.456-.496-.384-.33-.645-.795-.784-1.392l.368-.016c-.288.587-.64 1.05-1.056 1.392a2.057 2.057 0 0 1-1.36.512h-.048v-2.064ZM232.124 40l-.112-1.04.112-1.024h.064c.352 0 .694-.08 1.024-.24.331-.16.582-.357.752-.592.224-.277.395-.581.512-.912.128-.33.235-.677.32-1.04l1.504.16c0 .01-.026.133-.08.368-.16.619-.24 1.077-.24 1.376 0 .299.059.523.176.672.118.139.304.208.56.208h.032l.112 1.024-.112 1.04h-.064c-.469 0-.874-.128-1.216-.384a1.895 1.895 0 0 1-.656-1.056c-.341.47-.736.827-1.184 1.072a2.982 2.982 0 0 1-1.456.368h-.048Zm19.976-.528a2.6 2.6 0 0 1-1.344-.368 3.036 3.036 0 0 1-1.008-1.008 2.604 2.604 0 0 1-.368-1.344c0-.49.123-.944.368-1.36a2.76 2.76 0 0 1 .992-.992 2.69 2.69 0 0 1 1.36-.368c.501 0 .96.123 1.376.368a2.72 2.72 0 0 1 1.008.992c.245.416.368.87.368 1.36 0 .48-.123.933-.368 1.36a2.72 2.72 0 0 1-1.008.992 2.66 2.66 0 0 1-1.376.368Zm0-1.6c.309 0 .571-.107.784-.32.213-.213.32-.48.32-.8 0-.33-.107-.603-.32-.816a1.066 1.066 0 0 0-.784-.32c-.299 0-.555.112-.768.336-.213.213-.32.48-.32.8 0 .32.107.587.32.8.213.213.469.32.768.32Zm-19.424 29.362c-.802 0-1.516-.159-2.142-.476a3.519 3.519 0 0 1-1.456-1.33c-.354-.579-.532-1.255-.532-2.03 0-.57.094-1.171.28-1.806.187-.635.402-1.195.644-1.68l.952.448c-.522 1.101-.784 2.063-.784 2.884 0 .887.262 1.563.784 2.03.523.467 1.274.7 2.254.7.654 0 1.228-.103 1.722-.308.504-.196.906-.448 1.204-.756.299-.308.5-.62.602-.938.019-.065-.093-.145-.336-.238-.233-.103-.672-.247-1.316-.434-.737-.205-1.25-.425-1.54-.658-.289-.243-.434-.597-.434-1.064 0-.69.178-1.344.532-1.96a4.282 4.282 0 0 1 1.4-1.484 3.352 3.352 0 0 1 1.848-.56c.252 0 .5.033.742.098.243.056.43.13.56.224l-.378 1.106c-.252-.112-.56-.168-.924-.168-.476 0-.919.126-1.33.378-.41.252-.742.57-.994.952-.242.383-.364.751-.364 1.106 0 .177.098.331.294.462.206.13.612.285 1.218.462.598.177 1.041.331 1.33.462.299.13.504.275.616.434.112.15.168.345.168.588 0 .57-.2 1.13-.602 1.68-.392.55-.942.999-1.652 1.344-.7.355-1.488.532-2.366.532Zm4.894-.308a6.592 6.592 0 0 0 1.624-.812c.486-.336.864-.695 1.134-1.078.28-.383.42-.742.42-1.078 0-.476-.238-1.643-.714-3.5l1.078-.406c.206.663.374 1.363.504 2.1.14.737.21 1.34.21 1.806 0 .55-.163 1.087-.49 1.61-.326.532-.779 1.008-1.358 1.428a7.06 7.06 0 0 1-1.932 1.022l-.476-1.092ZM246.191 64c-.663 0-1.181-.107-1.554-.322a1.845 1.845 0 0 1-.798-.994c-.15-.439-.224-1.017-.224-1.736 0-1.064-.024-2.268-.07-3.612-.038-1.353-.098-2.3-.182-2.842l1.12-.238c.074.476.13 1.311.168 2.506.046 1.185.07 2.263.07 3.234v.588l-.014.49c0 .439.037.775.112 1.008a.861.861 0 0 0 .42.504c.214.103.532.154.952.154h.07l.07.63-.07.63h-.07Zm-.078-1.26h1.288c1.167 0 2.254-.14 3.262-.42a15.538 15.538 0 0 0 3.052-1.246 8.501 8.501 0 0 1 1.68-.7l.042.504c-.532 0-1.04-.06-1.526-.182a7.231 7.231 0 0 1-1.484-.574 8.868 8.868 0 0 0-1.204-.532 3.225 3.225 0 0 0-1.05-.182c-.392 0-.746.117-1.064.35a2.309 2.309 0 0 0-.714.826l-.756-.518c.299-.607.668-1.064 1.106-1.372a2.45 2.45 0 0 1 1.47-.476c.392 0 .756.065 1.092.196.346.13.854.364 1.526.7.626.317 1.116.555 1.47.714.364.15.775.27 1.232.364l.042 1.106c-.186.056-.382.13-.588.224-.196.093-.48.243-.854.448-1.26.663-2.403 1.167-3.43 1.512-1.017.345-2.118.518-3.304.518h-1.288v-1.26Zm4.648 2.394.994.994-.994.994-.994-.994.994-.994Z"/>
  <path fill="#fff" d="M314 55.996v-12c0-5.656 0-8.484-1.758-10.242-1.536-1.536-3.892-1.73-8.242-1.754h-16c-4.35.024-6.706.218-8.242 1.754C278 35.512 278 38.34 278 43.996v12c0 5.658 0 8.486 1.758 10.244 1.756 1.756 4.586 1.756 10.242 1.756h12c5.656 0 8.486 0 10.242-1.756C314 64.48 314 61.654 314 55.996Z" opacity=".5"/>
  <path fill="#fff" d="M288 31a2.999 2.999 0 0 1 3-3h10a2.998 2.998 0 0 1 3 3v2a2.999 2.999 0 0 1-3 3h-10a2.998 2.998 0 0 1-3-3v-2Z"/>
  <path fill="#fff" fill-rule="evenodd" d="M284.5 45a1.501 1.501 0 0 1 1.5-1.5h1a1.502 1.502 0 0 1 1.061 2.56 1.5 1.5 0 0 1-1.061.44h-1a1.502 1.502 0 0 1-1.5-1.5Zm7 0a1.501 1.501 0 0 1 1.5-1.5h13a1.502 1.502 0 0 1 1.061 2.56 1.5 1.5 0 0 1-1.061.44h-13a1.502 1.502 0 0 1-1.5-1.5Zm-7 7a1.501 1.501 0 0 1 1.5-1.5h1a1.502 1.502 0 0 1 1.061 2.56 1.5 1.5 0 0 1-1.061.44h-1a1.502 1.502 0 0 1-1.5-1.5Zm7 0a1.501 1.501 0 0 1 1.5-1.5h13a1.502 1.502 0 0 1 1.061 2.56 1.5 1.5 0 0 1-1.061.44h-13a1.502 1.502 0 0 1-1.5-1.5Zm-7 7a1.501 1.501 0 0 1 1.5-1.5h1a1.502 1.502 0 0 1 1.061 2.56 1.5 1.5 0 0 1-1.061.44h-1a1.502 1.502 0 0 1-1.5-1.5Zm7 0a1.501 1.501 0 0 1 1.5-1.5h13a1.502 1.502 0 0 1 1.061 2.56 1.5 1.5 0 0 1-1.061.44h-13a1.502 1.502 0 0 1-1.5-1.5Z" clip-rule="evenodd"/>
  <defs>
    <linearGradient id="a" x1="344" x2="0" y1="48" y2="48" gradientUnits="userSpaceOnUse">
      <stop stop-color="#55C1DA"/>
      <stop offset="1" stop-color="#6DD5ED"/>
    </linearGradient>
  </defs>
</svg>
