<svg xmlns="http://www.w3.org/2000/svg" width="38" height="38" fill="none" viewBox="0 0 38 38">
  <path fill="#075985" d="M19 34.833c-7.463 0-11.195 0-13.515-2.32C3.167 30.198 3.167 26.464 3.167 19c0-7.464 0-11.196 2.318-13.515C7.806 3.167 11.536 3.167 19 3.167s11.196 0 13.514 2.318c2.32 2.32 2.32 6.051 2.32 13.515s0 11.196-2.32 13.514c-2.316 2.32-6.05 2.32-13.514 2.32Z" opacity=".5"/>
  <path fill="#075985" d="M19 12.27c-.983 0-1.781.799-1.781 1.782a1.188 1.188 0 0 1-2.375 0 4.156 4.156 0 1 1 7.137 2.896c-.145.15-.285.29-.418.423-.321.306-.623.632-.904.977-.348.446-.471.774-.471 1.048v1.187a1.187 1.187 0 1 1-2.375 0v-1.187c0-1.037.482-1.878.972-2.507.362-.465.817-.918 1.187-1.288.111-.111.215-.214.306-.308A1.78 1.78 0 0 0 19 12.271Zm0 14.647a1.583 1.583 0 1 0 0-3.167 1.583 1.583 0 0 0 0 3.167Z"/>
</svg>
