<svg xmlns="http://www.w3.org/2000/svg" width="14" height="15" fill="none" viewBox="0 0 14 15">
  <g clip-path="url(#a)">
    <path fill="#1F2937" d="M10.839 1.749 7.184.53a.583.583 0 0 0-.368 0L3.16 1.75a2.913 2.913 0 0 0-1.994 2.766V7.5c0 4.412 5.366 6.849 5.596 6.95a.584.584 0 0 0 .474 0c.23-.101 5.596-2.538 5.596-6.95V4.515A2.912 2.912 0 0 0 10.84 1.75Zm.828 5.751c0 3.182-3.686 5.27-4.667 5.769-.982-.498-4.667-2.578-4.667-5.769V4.515a1.75 1.75 0 0 1 1.197-1.66L7 1.7l3.47 1.156a1.75 1.75 0 0 1 1.197 1.66V7.5Z"/>
    <path fill="#1F2937" d="m8.925 5.342-2.443 2.45-1.309-1.365a.583.583 0 1 0-.84.808l1.345 1.4a1.092 1.092 0 0 0 .784.35h.02a1.092 1.092 0 0 0 .778-.322L9.752 6.17a.585.585 0 1 0-.827-.83Z"/>
  </g>
  <defs>
    <clipPath id="a">
      <path fill="#fff" d="M0 .5h14v14H0z"/>
    </clipPath>
  </defs>
</svg>
